<svg width="24" height="24" viewBox="0 0 24 24" fill="none" xmlns="http://www.w3.org/2000/svg">
<g clip-path="url(#clip0_25043_4943)">
<path d="M12.0044 0.469177C12.9069 0.469261 13.7881 0.741834 14.5337 1.25043C15.0794 1.62272 15.5322 2.10976 15.8657 2.67328C16.5007 2.50987 17.1669 2.48616 17.8169 2.60883C18.704 2.77628 19.5204 3.20779 20.1587 3.84613C20.7968 4.48437 21.2276 5.30013 21.395 6.18695C21.5177 6.83703 21.493 7.50309 21.3296 8.13812C21.8924 8.47254 22.3787 8.9263 22.7505 9.47211C23.2579 10.217 23.5303 11.0972 23.5317 11.9985V12.0014C23.5303 12.9027 23.2579 13.7829 22.7505 14.5278C22.3788 15.0735 21.8922 15.5264 21.3296 15.8608C21.4933 16.4961 21.5178 17.1625 21.395 17.8129C21.2276 18.7 20.797 19.5164 20.1587 20.1547C19.5204 20.7931 18.704 21.2236 17.8169 21.3911C17.1668 21.5137 16.5008 21.4891 15.8657 21.3256C15.5322 21.8895 15.0797 22.378 14.5337 22.7504C13.7882 23.2588 12.9068 23.5306 12.0044 23.5307C11.1019 23.5307 10.2197 23.259 9.47412 22.7504C8.92795 22.3778 8.47471 21.8897 8.14111 21.3256C7.50636 21.4888 6.84068 21.5137 6.19092 21.3911C5.3041 21.2236 4.48833 20.7928 3.8501 20.1547C3.21176 19.5164 2.78025 18.7 2.61279 17.8129C2.49013 17.1629 2.51384 16.4967 2.67725 15.8618C2.11373 15.5282 1.62668 15.0755 1.25439 14.5297C0.745801 13.7842 0.473229 12.9029 0.473145 12.0004C0.473145 11.0978 0.74571 10.2158 1.25439 9.47015C1.62679 8.92428 2.11354 8.47068 2.67725 8.13715C2.51408 7.50247 2.49019 6.83662 2.61279 6.18695C2.78026 5.29993 3.21179 4.48444 3.8501 3.84613C4.4884 3.20783 5.3039 2.7763 6.19092 2.60883C6.84059 2.48623 7.50644 2.51012 8.14111 2.67328C8.47465 2.10958 8.92824 1.62282 9.47412 1.25043C10.2198 0.741743 11.1017 0.469177 12.0044 0.469177ZM10.7856 17.6254V16.9692H9.65674C9.24266 16.9692 8.90696 16.6332 8.90674 16.2192C8.90674 15.805 9.24253 15.4692 9.65674 15.4692H11.6714C11.8939 15.4691 12.1102 15.3934 12.2847 15.2553C12.4591 15.1172 12.5822 14.924 12.6333 14.7075C12.6844 14.491 12.6611 14.2634 12.5669 14.062C12.4726 13.8604 12.3127 13.6967 12.1138 13.5971L10.2856 12.6821C9.78453 12.4313 9.38243 12.0187 9.14502 11.5112C8.90761 11.0036 8.84832 10.4306 8.97705 9.88519C9.10578 9.33983 9.41565 8.85412 9.85498 8.50629C10.1313 8.28759 10.4486 8.13108 10.7856 8.04535V7.31293C10.7856 6.89871 11.1214 6.56293 11.5356 6.56293C11.9497 6.56315 12.2856 6.89885 12.2856 7.31293V7.96918H13.4067C13.8208 7.96932 14.1567 8.30505 14.1567 8.71918C14.1565 9.13311 13.8207 9.46904 13.4067 9.46918H11.3989L11.2339 9.48285C11.071 9.51046 10.9166 9.57842 10.7856 9.68207C10.6112 9.8202 10.4881 10.0133 10.437 10.2299C10.3859 10.4465 10.4101 10.6739 10.5044 10.8754C10.5986 11.0769 10.7577 11.2407 10.9565 11.3403L12.7847 12.2553C13.2857 12.506 13.6879 12.9187 13.9253 13.4262C14.1627 13.9337 14.222 14.5068 14.0933 15.0522C13.9646 15.5974 13.6554 16.0833 13.2163 16.4311C12.9403 16.6496 12.6224 16.8052 12.2856 16.8911V17.6254C12.2854 18.0393 11.9495 18.3752 11.5356 18.3754C11.1216 18.3754 10.7859 18.0394 10.7856 17.6254ZM1.97314 12.0004C1.97323 12.6014 2.15404 13.1886 2.49268 13.685C2.83134 14.1815 3.31208 14.5643 3.87158 14.7836C4.06143 14.858 4.21347 15.0064 4.2915 15.1948C4.36952 15.3832 4.36739 15.5958 4.28564 15.7827C4.04476 16.3334 3.97496 16.9439 4.08643 17.5346C4.1979 18.1253 4.48563 18.6682 4.91064 19.0932C5.33566 19.5182 5.8786 19.8059 6.46924 19.9174C7.05988 20.0289 7.67049 19.9591 8.22119 19.7182C8.40806 19.6365 8.62062 19.6343 8.80908 19.7123C8.99754 19.7904 9.14579 19.9424 9.22021 20.1323C9.43953 20.6918 9.8224 21.1725 10.3188 21.5112C10.8154 21.8499 11.4033 22.0307 12.0044 22.0307C12.6053 22.0306 13.1925 21.8498 13.689 21.5112C14.1854 21.1725 14.5683 20.6918 14.7876 20.1323L14.8188 20.0629C14.8997 19.9056 15.0338 19.7806 15.1987 19.7123C15.3872 19.6343 15.5997 19.6365 15.7866 19.7182C16.3374 19.9591 16.9479 20.0289 17.5386 19.9174C18.1293 19.8059 18.6721 19.5183 19.0972 19.0932C19.5222 18.6681 19.8099 18.1253 19.9214 17.5346C20.0329 16.9439 19.9631 16.3334 19.7222 15.7827C19.6406 15.5961 19.6387 15.384 19.7163 15.1957C19.7939 15.0076 19.945 14.8594 20.1343 14.7846C20.6931 14.5638 21.1729 14.1796 21.5112 13.683C21.8489 13.1872 22.0303 12.6013 22.0317 12.0014L22.0229 11.7768C21.983 11.2551 21.8072 10.7514 21.5112 10.3168C21.1729 9.82022 20.6931 9.43612 20.1343 9.21527C19.945 9.14047 19.7939 8.9923 19.7163 8.80414C19.6387 8.61591 19.6406 8.40376 19.7222 8.21722C19.963 7.66652 20.0328 7.05592 19.9214 6.46527C19.8099 5.87464 19.5222 5.3317 19.0972 4.90668C18.6721 4.48166 18.1292 4.19393 17.5386 4.08246C16.9479 3.97099 16.3373 4.04079 15.7866 4.28168C15.5997 4.36342 15.3872 4.36555 15.1987 4.28754C15.0103 4.2095 14.862 4.05747 14.7876 3.86761C14.5683 3.30811 14.1854 2.82737 13.689 2.48871C13.1925 2.15007 12.6053 1.96926 12.0044 1.96918C11.4033 1.96918 10.8154 2.14997 10.3188 2.48871C9.8224 2.82738 9.43954 3.30811 9.22021 3.86761C9.1458 4.05751 8.99752 4.20952 8.80908 4.28754C8.62062 4.36555 8.40806 4.36342 8.22119 4.28168C7.6705 4.04084 7.05987 3.971 6.46924 4.08246C5.8786 4.19395 5.33567 4.48165 4.91064 4.90668C4.48562 5.3317 4.19792 5.87463 4.08643 6.46527C3.97497 7.0559 4.0448 7.66654 4.28564 8.21722C4.36739 8.4041 4.36952 8.61665 4.2915 8.80511C4.21349 8.99355 4.06147 9.14183 3.87158 9.21625C3.31208 9.43558 2.83135 9.81844 2.49268 10.3149C2.15394 10.8114 1.97314 11.3993 1.97314 12.0004Z" fill="black"/>
</g>
<defs>
<clipPath id="clip0_25043_4943">
<rect width="24" height="24" fill="white"/>
</clipPath>
</defs>
</svg>
