<svg width="16" height="16" viewBox="0 0 16 16" fill="none" xmlns="http://www.w3.org/2000/svg">
<g clip-path="url(#clip0_18009_675)">
<path fill-rule="evenodd" clip-rule="evenodd" d="M9.05851 0.171078C9.3322 0.481992 9.30202 0.955906 8.99111 1.22959L2.15188 7.24997H15.4955C15.9098 7.24997 16.2455 7.58575 16.2455 7.99997C16.2455 8.41418 15.9098 8.74997 15.4955 8.74997H2.15322L8.99116 14.7704C9.30205 15.0441 9.33218 15.518 9.05846 15.8289C8.78474 16.1398 8.31082 16.1699 7.99994 15.8962L0.237938 9.06221C0.0871955 8.92927 -0.0340004 8.76536 -0.116696 8.58217C-0.185704 8.4293 -0.226908 8.26564 -0.238657 8.09885C-0.242918 8.06649 -0.245117 8.03349 -0.245117 7.99997C-0.245117 7.96697 -0.242986 7.93447 -0.238855 7.9026C-0.227376 7.73483 -0.186096 7.57017 -0.116696 7.41643C-0.0340012 7.23324 0.0867271 7.06975 0.237471 6.9368L7.99999 0.103676C8.31091 -0.170013 8.78482 -0.139836 9.05851 0.171078Z" fill="black"/>
</g>
<defs>
<clipPath id="clip0_18009_675">
<rect width="16" height="16" fill="white"/>
</clipPath>
</defs>
</svg>
